<svg width="40" height="40" viewBox="0 0 40 40" fill="none" xmlns="http://www.w3.org/2000/svg">
<path d="M33.8639 14.8122H6.3999V18.8682H33.8639V14.8122Z" fill="white"/>
<path d="M18.864 20.4402H8.22803V34.8962H18.864V20.4402Z" fill="white"/>
<path d="M32.0359 20.4402H21.3999V34.8962H32.0359V20.4402Z" fill="white"/>
<path d="M22.04 10.0962C22.04 10.0962 22.528 4.76021 27.616 4.80021C32.016 4.80021 31.392 9.87217 30.716 10.6442C30.2 11.2362 28.352 14.2202 22.076 12.4322C22.076 12.4322 27.86 11.8482 28.18 9.55221C28.472 7.44421 27.088 6.44417 25.38 6.99217C23.856 7.42417 22.04 10.0962 22.04 10.0962Z" fill="white"/>
<path d="M18.2242 10.0962C18.2242 10.0962 17.7362 4.76021 12.6482 4.80021C8.24822 4.80021 8.87222 9.87217 9.54822 10.6442C10.0642 11.2362 11.9122 14.2202 18.1882 12.4322C18.1882 12.4322 12.4042 11.8482 12.0842 9.55221C11.7922 7.44421 13.1842 6.44417 14.9122 6.99217C16.4042 7.42417 18.2242 10.0962 18.2242 10.0962Z" fill="white"/>
<path d="M20.1321 12.8362C21.6241 12.8362 22.8361 12.1081 22.8361 11.2081C22.8361 10.3081 21.6361 9.58014 20.1321 9.58014C18.6281 9.58014 17.4321 10.3081 17.4321 11.2081C17.4321 12.1081 18.6441 12.8362 20.1321 12.8362Z" fill="white"/>
</svg>
