<svg xmlns="http://www.w3.org/2000/svg" width="400" height="124.00000000000001" viewBox="0, 0, 400,124.00000000000001"><path fill-rule="evenodd" d="M56.457.127C29.585 2.248 7.176 21.796 1.254 48.281.648 50.993.001 55.306 0 56.637v.466l16.468 6.868 16.469 6.869.639-.409c2.435-1.558 5.477-2.487 8.642-2.64l1.589-.077 7.278-10.642 7.278-10.642.076-1.472c1.114-21.734 28.604-30.282 41.531-12.914 11.336 15.23.448 37.327-18.392 37.327h-.683l-10.452 7.515L59.991 84.4l.054.371c.477 3.238-1.571 8.9-4.359 12.054-9.155 10.358-26.105 6.363-29.679-6.994-.158-.589-.327-1.11-.376-1.159-.134-.133-23.473-9.839-23.528-9.785-.145.145 1.377 4.626 2.43 7.153 11.091 26.636 38.796 41.938 67.179 37.104 29.386-5.005 51.027-30.937 51.027-61.144 0-36.15-30.575-64.692-66.282-61.873m22.914 30.392c-13.824 2.146-18.176 19.889-6.914 28.187 8.759 6.454 21.496 1.733 24.105-8.935 2.604-10.648-6.553-20.904-17.191-19.252m4.377 4.062c8.531 1.753 12.187 11.962 6.716 18.754-5.266 6.538-15.493 5.371-19.214-2.192-4.216-8.568 3.25-18.462 12.498-16.562m85.166 4.108c-8.514 1.077-13.532 6.399-13.104 13.9.365 6.414 3.621 9.473 13.722 12.892 7.343 2.486 8.718 3.41 8.842 5.948.27 5.494-9.379 6.871-18.654 2.662-.758-.344-1.456-.649-1.552-.679-.161-.05-3.198 7.771-3.067 7.898.886.856 6.06 2.809 9.102 3.435 14.042 2.891 24.28-2.866 24.29-13.659.006-6.701-2.985-9.633-13.579-13.311-7.891-2.739-9.143-3.616-9.143-6.404 0-5.482 9.394-6.383 16.856-1.616.345.22.639.388.654.373.319-.318 3.989-7.129 3.9-7.236-.844-1.017-5.517-3.052-8.438-3.674-3.021-.644-7.159-.867-9.829-.529m223.117.23c-2.898.781-4.588 3.224-4.46 6.452.327 8.252 12.418 7.97 12.428-.29.005-4.384-3.76-7.296-7.968-6.162m-196.717 4.51v4.114h13.715v37.143h9.485V47.543h13.6v-8.229h-36.8v4.115M242.4 62v22.686h30.4v-8.343H252V65.829H269.943V57.6H252V47.543h20.8v-8.229h-30.4V62m55.19-22.374c-.695 1.829-16.61 44.706-16.649 44.857-.051.192.211.203 4.918.203h4.971l.759-2.2c.417-1.21 1.083-3.177 1.48-4.372l.722-2.171 8.735-.029 8.735-.03.956 2.772c.526 1.525 1.212 3.505 1.525 4.401l.569 1.629h5.143c4.843 0 5.141-.012 5.091-.2-.046-.172-16.609-43.549-17.085-44.743l-.171-.429h-9.58l-.119.312M334.057 62v22.686h9.142l.029-13.578.029-13.578 5.953 12.921 5.952 12.92h5.416l6.083-13.103 6.082-13.104.029 13.761.029 13.761h9.028V39.312l-4.585.03-4.584.029-7.209 16.202c-3.964 8.91-7.247 16.162-7.293 16.114-.047-.048-3.438-7.351-7.535-16.23l-7.45-16.143h-9.116V62m61.232-21.924c2.293.574 3.688 2.679 3.539 5.338-.374 6.674-10.13 6.354-10.141-.333-.006-3.653 2.975-5.913 6.602-5.005m-3.632 4.895v3.143H392.8v-2.4h1.144l.597 1.2.597 1.2h1.335l-.718-1.358-.718-1.358.359-.302c.983-.828.877-2.492-.194-3.038-.385-.196-.673-.229-1.997-.229h-1.548v3.142m2.779-1.982c.973.511.393 1.594-.897 1.676l-.739.047v-1.855h.693c.382 0 .806.059.943.132M305.53 59.274c1.673 4.85 3.041 8.848 3.041 8.886 0 .038-2.725.069-6.057.069-3.331 0-6.057-.035-6.057-.078 0-.123 5.974-17.758 6.005-17.724.015.016 1.395 3.998 3.068 8.847M40.743 72.165c-.992.154-2.686.623-2.686.743 0 .04 1.839.838 4.086 1.771 4.952 2.058 5.358 2.28 6.771 3.709 5.994 6.059 1.839 16.269-6.628 16.289-2.127.005-2.155-.003-7.221-2.114-2.251-.938-4.119-1.706-4.152-1.706-.346 0 1.536 2.734 2.621 3.809 6.349 6.288 16.974 4.448 20.928-3.623 4.664-9.522-3.312-20.498-13.719-18.878"/></svg>