<svg width="40" height="40" viewBox="0 0 40 40" fill="none" xmlns="http://www.w3.org/2000/svg">
<path d="M17.7046 0.0982421C14.9329 0.415033 12.3001 1.45604 10.0839 3.11147C7.8676 4.76691 6.15007 6.97544 5.11227 9.50418C4.07447 12.0329 3.7549 14.7881 4.18727 17.4794C4.61965 20.1706 5.78788 22.698 7.56889 24.7952L18.267 39.3695C18.4118 39.5647 18.6019 39.7237 18.8218 39.8333C19.0417 39.9429 19.2848 40 19.5317 40C19.7786 40 20.0222 39.9429 20.2421 39.8333C20.462 39.7237 20.652 39.5647 20.7968 39.3695L31.729 24.9477C33.9464 22.1357 35.0997 18.6617 34.9932 15.1146C34.9876 12.9825 34.5212 10.8756 33.6244 8.93156C32.7276 6.98749 31.4204 5.25002 29.7887 3.83274C28.157 2.41545 26.2371 1.35025 24.1548 0.706732C22.0725 0.0632128 19.8746 -0.144145 17.7046 0.0982421ZM20.5002 20.4657C19.2359 20.666 17.9392 20.4702 16.796 19.9062C15.6529 19.3422 14.7223 18.4392 14.1377 17.3267C13.5531 16.2142 13.3444 14.9495 13.5421 13.7142C13.7398 12.4788 14.3334 11.3364 15.2377 10.4509C16.142 9.56547 17.3106 8.98246 18.5755 8.78566C19.8403 8.58886 21.1366 8.7884 22.2781 9.35558C23.4196 9.92276 24.3475 10.8284 24.9288 11.9426C25.5101 13.0567 25.7147 14.322 25.5133 15.5567C25.3129 16.7857 24.7205 17.9218 23.8204 18.8031C22.9204 19.6845 21.7586 20.2662 20.5002 20.4657Z" fill="white"/>
</svg>
