<svg width="1920" height="332" viewBox="0 0 1920 332" fill="none" xmlns="http://www.w3.org/2000/svg">
<g clip-path="url(#clip0_8355_88853)">
<path d="M307.5 326.098C303.116 328.416 298.947 329.761 293.5 329.765H146.5H0L0 311H347.5C342.053 311.004 339 312.293 333.5 314.45L307.5 326.098Z" fill="#192561" fill-opacity="0.2"/>
<path d="M1612.06 326.291C1616.45 328.635 1620.62 329.996 1626.08 330H1773.29H1920V311.018H1572C1577.45 311.022 1580.51 312.326 1586.02 314.508L1612.06 326.291Z" fill="#192561" fill-opacity="0.2"/>
<path d="M307.5 6.07772C303.116 3.62919 298.947 2.20814 293.5 2.20428L146.5 2.20428L0 2.20428L0 22.0254L347.5 22.0254C342.053 22.0215 339 20.6601 333.5 18.3816L307.5 6.07772Z" fill="#192561" fill-opacity="0.2"/>
<path d="M1612.06 5.91836C1616.45 3.44146 1620.62 2.00394 1626.08 2.00004L1773.29 2.00004L1920 2.00004V22.0508L1572 22.0508C1577.45 22.0469 1580.51 20.6696 1586.02 18.3648L1612.06 5.91836Z" fill="#192561" fill-opacity="0.2"/>
<rect y="22.2144" width="1920" height="2.67003" fill="#192561" fill-opacity="0.2"/>
<path fill-rule="evenodd" clip-rule="evenodd" d="M0.00414636 0H193.823C195.745 0 197.655 0.298596 199.484 0.884127L292.967 0.884123H292.968C297.987 0.886752 302.92 1.78615 307.055 3.49465L307.065 3.49852L336.799 15.5115L336.807 15.5145L336.815 15.5176C340.402 17.001 344.809 17.826 349.384 17.8284L960 17.8282L1570.62 17.8283C1575.19 17.8259 1579.6 17.0009 1583.19 15.5175L1583.2 15.5144L1583.2 15.5113L1612.94 3.49837L1612.95 3.4945C1617.08 1.786 1622.02 0.886599 1627.04 0.883971H1627.04L1720.52 0.883974C1722.35 0.298544 1724.26 0 1726.18 0H1920V0.883981H1920V4.88398L1627.04 4.88397L1627.04 4.88397C1622.46 4.88649 1618.05 5.71149 1614.47 7.19478L1614.46 7.1979L1614.45 7.20096L1587.72 18H1646.48L1663.69 12.6964C1665.89 12.0205 1668.17 11.6769 1670.47 11.6769H1920V24H1920V308H1920V320.377H1670.48C1668.18 320.377 1665.88 320.03 1663.68 319.349L1646.39 314H1587.91L1614.46 324.77L1614.46 324.774L1614.47 324.777C1618.06 326.266 1622.46 327.094 1627.04 327.097H1627.04H1920V331.097H1920V332H1726.18C1724.24 332 1722.32 331.695 1720.47 331.097H1627.04H1627.04C1622.01 331.094 1617.08 330.19 1612.94 328.473L1612.94 328.471L1583.2 316.405L1583.19 316.402L1583.19 316.399C1579.6 314.91 1575.19 314.081 1570.62 314.079L960.004 314.079L960 314.079L349.384 314.079C344.81 314.081 340.404 314.91 336.817 316.399L336.81 316.402L336.802 316.405L307.067 328.471L307.062 328.473C302.924 330.19 297.989 331.094 292.968 331.097H292.967H199.53C197.687 331.695 195.761 332 193.821 332H0.00390221V331.097H0.000235798L0.000236702 327.097L292.966 327.097H292.967C297.541 327.095 301.947 326.266 305.533 324.777L305.54 324.774L305.548 324.77L332.092 314H273.612L256.322 319.35C254.12 320.031 251.828 320.378 249.523 320.378H0V314V308.001V24V18V11.6769H249.537C251.833 11.6769 254.115 12.0205 256.309 12.6964L273.524 18H332.281L305.551 7.20111L305.544 7.19805L305.536 7.19493C301.949 5.71164 297.542 4.88664 292.967 4.88412L292.966 4.88412L0.000480862 4.88413L0.000479954 0.884133H0.00414636V0ZM301.639 7.1857L315.343 12.8238C315.999 13.0935 315.822 14.0633 315.117 14.0676C315.031 14.0681 314.945 14.0514 314.865 14.0185L301.161 8.38039C300.505 8.11072 300.682 7.14089 301.387 7.13659C301.474 7.13607 301.559 7.15276 301.639 7.1857ZM1618.36 7.18548L1604.66 12.8236C1604.01 13.0933 1604.18 14.0631 1604.89 14.0674C1604.97 14.0679 1605.06 14.0512 1605.14 14.0183L1618.84 8.38018C1619.5 8.11051 1619.32 7.14068 1618.62 7.13638C1618.53 7.13585 1618.45 7.15255 1618.36 7.18548ZM301.64 324.778L315.346 319.114C316.003 318.843 315.825 317.871 315.117 317.866C315.031 317.866 314.944 317.883 314.864 317.916L301.157 323.58C300.5 323.851 300.679 324.823 301.386 324.828C301.473 324.828 301.559 324.811 301.64 324.778ZM1618.36 324.778L1604.66 319.114C1604 318.843 1604.18 317.871 1604.89 317.866C1604.97 317.866 1605.06 317.883 1605.14 317.916L1618.85 323.579C1619.5 323.851 1619.33 324.823 1618.62 324.828C1618.53 324.828 1618.44 324.811 1618.36 324.778Z" fill="#05A0FA"/>
</g>
<defs>
<clipPath id="clip0_8355_88853">
<rect width="1920" height="332" fill="white"/>
</clipPath>
</defs>
</svg>
